<?xml version="1.0" encoding="utf-8"?>
<!-- Generator: Adobe Illustrator 24.2.3, SVG Export Plug-In . SVG Version: 6.00 Build 0)  -->
<svg version="1.1" id="Art" xmlns="http://www.w3.org/2000/svg" xmlns:xlink="http://www.w3.org/1999/xlink" x="0px" y="0px"
	 viewBox="0 0 1024 772" style="enable-background:new 0 0 1024 772;" xml:space="preserve">
<style type="text/css">
	.st0{fill:#F1F1F1;}
	.st1{fill:#CCCCCC;}
	.st2{fill:none;stroke:#CCCCCC;stroke-width:5;stroke-linecap:round;stroke-miterlimit:10;}
	.st3{fill:none;stroke:#326CE5;stroke-width:5;stroke-linecap:round;stroke-miterlimit:10;stroke-dasharray:0.01999,10.49283;}
	.st4{fill:none;}
	.st5{fill:#343434;}
	.st6{fill:none;stroke:#666666;stroke-width:2;stroke-linecap:round;stroke-linejoin:round;stroke-miterlimit:10;}
	.st7{fill:none;stroke:#666666;stroke-width:2;stroke-linecap:round;stroke-miterlimit:10;}
	.st8{fill:#CCCCCC;stroke:#CCCCCC;stroke-width:5;stroke-linecap:round;stroke-miterlimit:10;}
	.st9{fill:#FFFFFF;stroke:#666666;stroke-width:3;stroke-miterlimit:10;}
	.st10{fill:none;stroke:#666666;stroke-width:2.25;stroke-linecap:round;stroke-miterlimit:10;}
	.st11{fill:none;stroke:#666666;stroke-width:2.25;stroke-linejoin:round;stroke-miterlimit:10;}
	.st12{fill:none;stroke:#666666;stroke-width:2.25;stroke-linecap:round;stroke-linejoin:round;stroke-miterlimit:10;}
	.st13{fill:#FFFFFF;stroke:#666666;stroke-width:2.25;stroke-linecap:round;stroke-linejoin:round;stroke-miterlimit:10;}
	.st14{fill:#FFFFFF;}
	.st15{fill:none;stroke:#666666;stroke-width:2.5;stroke-miterlimit:10;}
	.st16{fill:#E6E6E6;}
	.st17{fill:none;stroke:#E6E6E6;stroke-width:3;stroke-linecap:round;stroke-miterlimit:10;}
	.st18{fill:none;stroke:#666666;stroke-width:3;stroke-linecap:round;stroke-miterlimit:10;stroke-dasharray:0.01991,7.46767;}
	.st19{fill:#009639;}
	.st20{fill:#666666;}
	.st21{fill:#FFFFFF;stroke:#666666;stroke-width:2;stroke-linecap:round;stroke-linejoin:round;stroke-miterlimit:10;}
	.st22{fill:none;stroke:#666666;stroke-width:2.5;stroke-linecap:round;stroke-linejoin:round;stroke-miterlimit:10;}
</style>
<rect x="0.00001" class="st0" width="1024" height="772"/>
<g>
	<path class="st1" d="M973,722.50879c0,5.5-4.5,10-10,10H521c-5.5,0-9.99997-4.5-9.99997-10V50c0-5.5,4.49997-10,9.99997-10h442
		c5.5,0,10,4.5,10,10V722.50879z"/>
	<path class="st2" d="M973,722.50879c0,5.5-4.5,10-10,10H521c-5.5,0-9.99997-4.5-9.99997-10V50c0-5.5,4.49997-10,9.99997-10h442
		c5.5,0,10,4.5,10,10V722.50879z"/>
</g>
<g>
	<path class="st1" d="M973,722.50879c0,5.5-4.5,10-10,10H521c-5.5,0-9.99997-4.5-9.99997-10V50c0-5.5,4.49997-10,9.99997-10h442
		c5.5,0,10,4.5,10,10V722.50879z"/>
	<path class="st3" d="M973,722.50879c0,5.5-4.5,10-10,10H521c-5.5,0-10-4.5-10-10V50c0-5.5,4.5-10,10-10h442c5.5,0,10,4.5,10,10
		V722.50879z"/>
</g>
<g>
	<g>
		<rect x="531" y="59.22542" class="st4" width="142.43793" height="40.77462"/>
		<path class="st5" d="M536.28125,68.15625l-1.03418,1.62891v4.11426h-2.94824V59.22363h2.94824v6.66699l4.13672-6.66699h3.43262
			l-4.6875,6.9082l5.01758,7.76758h-3.47656L536.28125,68.15625z"/>
		<path class="st5" d="M549.94336,72.55762c-0.57227,0.83594-1.73828,1.60547-3.125,1.60547
			c-1.95801,0-2.83789-1.07812-2.83789-2.86035v-8.03125h2.64062v7.01953c0,1.12207,0.52734,1.54004,1.4082,1.54004
			c0.85742,0,1.54004-0.6377,1.91406-1.29785v-7.26172h2.64062v10.62793h-2.64062V72.55762z"/>
		<path class="st5" d="M554.95801,59.22363h2.64062v5.39062c0.63867-1.10059,1.67285-1.60645,2.68457-1.60645
			c2.39844,0,3.93848,2.17871,3.93848,5.58887c0,3.47656-1.5625,5.56641-3.93848,5.56641c-1.01172,0-2.02441-0.5498-2.68457-1.60547
			v1.3418h-2.64062V59.22363z M559.44727,71.83105c1.3418,0,2.0459-1.38574,2.0459-3.23438c0-1.87012-0.7041-3.25684-2.0459-3.25684
			c-0.72656,0-1.49609,0.57227-1.84863,1.27637v3.96094C557.95117,71.28125,558.7207,71.83105,559.44727,71.83105z"/>
		<path class="st5" d="M570.24902,63.00781c2.92676,0,4.57617,2.37598,4.57617,5.67676v0.74805h-6.66699
			c0.11035,1.45215,0.96875,2.59668,2.5752,2.59668c0.81348,0,1.71582-0.37402,2.30957-1.03418l1.21094,1.58398
			c-0.94629,1.03418-2.37695,1.58398-3.80664,1.58398c-2.99316,0-4.95117-2.24414-4.95117-5.58887
			C565.49609,65.49414,567.30078,63.00781,570.24902,63.00781z M568.1582,67.62891h4.11523
			c-0.04395-1.10059-0.52832-2.48633-2.06836-2.48633C568.73047,65.14258,568.20312,66.52832,568.1582,67.62891z"/>
		<path class="st5" d="M576.58398,63.27148h2.64062v1.47461c0.59375-0.96777,1.75977-1.71582,2.9043-1.71582v2.57422
			c-0.17578-0.04395-0.39648-0.06641-0.63867-0.06641c-0.83594,0-1.82617,0.57227-2.26562,1.27637v7.08496h-2.64062V63.27148z"/>
		<path class="st5" d="M589.58691,66.90234c0-1.12207-0.50586-1.5625-1.38672-1.5625c-0.87988,0-1.56152,0.68262-1.93555,1.32031
			v7.23926h-2.64062V63.27148h2.64062v1.38672c0.57227-0.83594,1.75977-1.65039,3.12402-1.65039
			c1.95801,0,2.83887,1.14453,2.83887,2.9043v7.9873h-2.64062V66.90234z"/>
		<path class="st5" d="M598.82617,63.00781c2.92676,0,4.57715,2.37598,4.57715,5.67676v0.74805h-6.66699
			c0.11035,1.45215,0.96777,2.59668,2.57422,2.59668c0.81445,0,1.7168-0.37402,2.31055-1.03418l1.20996,1.58398
			c-0.94629,1.03418-2.37598,1.58398-3.80664,1.58398c-2.99219,0-4.9502-2.24414-4.9502-5.58887
			C594.07422,65.49414,595.87793,63.00781,598.82617,63.00781z M596.73633,67.62891h4.11426
			c-0.04395-1.10059-0.52734-2.48633-2.06836-2.48633C597.30859,65.14258,596.78027,66.52832,596.73633,67.62891z"/>
		<path class="st5" d="M605.62402,71.34668v-5.76465h-1.38672v-2.31055h1.38672v-2.9043h2.63965v2.9043h1.76074v2.31055h-1.76074
			v5.14941c0,0.68164,0.26465,1.09961,0.77051,1.09961c0.33008,0,0.66016-0.13184,0.79199-0.30762l0.5498,2.02441
			c-0.39551,0.35156-1.07812,0.61523-2.0459,0.61523C606.48145,74.16309,605.62402,73.21777,605.62402,71.34668z"/>
		<path class="st5" d="M615.91992,63.00781c2.92676,0,4.57617,2.37598,4.57617,5.67676v0.74805h-6.66699
			c0.11035,1.45215,0.96875,2.59668,2.5752,2.59668c0.81348,0,1.71582-0.37402,2.30957-1.03418l1.21094,1.58398
			c-0.94629,1.03418-2.37695,1.58398-3.80664,1.58398c-2.99316,0-4.95117-2.24414-4.95117-5.58887
			C611.16699,65.49414,612.97168,63.00781,615.91992,63.00781z M613.8291,67.62891h4.11523
			c-0.04395-1.10059-0.52832-2.48633-2.06836-2.48633C614.40137,65.14258,613.87402,66.52832,613.8291,67.62891z"/>
		<path class="st5" d="M622.5625,70.79688c0.66016,0.7041,1.84863,1.29785,2.92676,1.29785c1.01172,0,1.5625-0.41797,1.5625-1.09961
			c0-0.72656-0.81445-1.03418-1.82617-1.36426c-1.49609-0.48438-3.43262-1.05664-3.43262-3.43262
			c0-1.71582,1.38574-3.19043,3.87207-3.19043c1.51855,0,2.77246,0.5498,3.69727,1.36426l-1.05664,1.78223
			c-0.52832-0.59375-1.51855-1.10059-2.59668-1.10059c-0.83594,0-1.4082,0.39648-1.4082,0.99023
			c0,0.63867,0.72656,0.94629,1.7168,1.25488c1.54004,0.4834,3.56445,1.12207,3.56445,3.56445
			c0,1.91406-1.5625,3.2998-4.04883,3.2998c-1.71582,0-3.19043-0.57129-4.09277-1.51758L622.5625,70.79688z"/>
		<path class="st5" d="M532.29883,81.22363h8.40527v2.57422h-5.45703v3.36621h5.30273v2.55273h-5.30273v3.6084h5.45703v2.57422
			h-8.40527V81.22363z"/>
		<path class="st5" d="M548.73242,88.90234c0-1.12207-0.50586-1.5625-1.38574-1.5625s-1.5625,0.68262-1.93652,1.32031v7.23926
			h-2.64062V85.27148h2.64062v1.38672c0.57227-0.83594,1.76074-1.65039,3.125-1.65039c1.95801,0,2.83789,1.14453,2.83789,2.9043
			v7.9873h-2.64062V88.90234z"/>
		<path class="st5" d="M552.53809,85.27148h2.81641l2.13379,7.45996l2.15625-7.45996h2.81641l-3.54199,10.62793h-2.83887
			L552.53809,85.27148z"/>
		<path class="st5" d="M563.31836,82.125c0-0.87988,0.72559-1.60547,1.58398-1.60547c0.87988,0,1.58398,0.72559,1.58398,1.60547
			c0,0.88086-0.7041,1.58496-1.58398,1.58496C564.04395,83.70996,563.31836,83.00586,563.31836,82.125z M563.58203,85.27148h2.64062
			v10.62793h-2.64062V85.27148z"/>
		<path class="st5" d="M568.59766,85.27148h2.64062v1.47461c0.59473-0.96777,1.76074-1.71582,2.9043-1.71582v2.57422
			c-0.17578-0.04395-0.39551-0.06641-0.6377-0.06641c-0.83594,0-1.82617,0.57227-2.2666,1.27637v7.08496h-2.64062V85.27148z"/>
		<path class="st5" d="M575.08789,90.57422c0-2.96973,1.67285-5.56641,4.79688-5.56641c3.16797,0,4.81836,2.59668,4.81836,5.56641
			c0,2.99316-1.65039,5.58887-4.81836,5.58887C576.76074,96.16309,575.08789,93.56738,575.08789,90.57422z M581.97461,90.57422
			c0-1.73828-0.6377-3.23438-2.08984-3.23438c-1.4082,0-2.0459,1.49609-2.0459,3.23438c0,1.76074,0.6377,3.25684,2.0459,3.25684
			C581.33691,93.83105,581.97461,92.33496,581.97461,90.57422z"/>
		<path class="st5" d="M592.49023,88.90234c0-1.12207-0.50586-1.5625-1.38574-1.5625s-1.5625,0.68262-1.93652,1.32031v7.23926
			h-2.64062V85.27148h2.64062v1.38672c0.57227-0.83594,1.76074-1.65039,3.125-1.65039c1.95801,0,2.83789,1.14453,2.83789,2.9043
			v7.9873h-2.64062V88.90234z"/>
		<path class="st5" d="M608.88184,88.74805c0-0.87988-0.37402-1.4082-1.21094-1.4082c-0.83594,0-1.49609,0.72656-1.82617,1.32031
			v7.23926h-2.63965v-7.15137c0-0.85742-0.35254-1.4082-1.21094-1.4082c-0.81348,0-1.49609,0.72656-1.82617,1.32031v7.23926
			h-2.64062V85.27148h2.64062v1.38672c0.41797-0.72656,1.65039-1.65039,2.99219-1.65039c1.34277,0,2.28906,0.6377,2.5752,1.84863
			c0.50586-0.9248,1.75977-1.84863,3.10254-1.84863c1.62793,0,2.68359,0.8584,2.68359,2.81641v8.0752h-2.63965V88.74805z"/>
		<path class="st5" d="M618.09766,85.00781c2.92676,0,4.57715,2.37598,4.57715,5.67676v0.74805h-6.66699
			c0.11035,1.45215,0.96777,2.59668,2.57422,2.59668c0.81445,0,1.7168-0.37402,2.31055-1.03418l1.20996,1.58398
			c-0.94629,1.03418-2.37598,1.58398-3.80664,1.58398c-2.99219,0-4.9502-2.24414-4.9502-5.58887
			C613.3457,87.49414,615.14941,85.00781,618.09766,85.00781z M616.00781,89.62891h4.11426
			c-0.04395-1.10059-0.52734-2.48633-2.06836-2.48633C616.58008,87.14258,616.05176,88.52832,616.00781,89.62891z"/>
		<path class="st5" d="M630.39551,88.90234c0-1.12207-0.50586-1.5625-1.38574-1.5625s-1.5625,0.68262-1.93652,1.32031v7.23926
			h-2.64062V85.27148h2.64062v1.38672c0.57227-0.83594,1.76074-1.65039,3.125-1.65039c1.95801,0,2.83789,1.14453,2.83789,2.9043
			v7.9873h-2.64062V88.90234z"/>
		<path class="st5" d="M635.89551,93.34668v-5.76465h-1.38672v-2.31055h1.38672v-2.9043h2.63965v2.9043h1.76074v2.31055h-1.76074
			v5.14941c0,0.68164,0.26465,1.09961,0.77051,1.09961c0.33008,0,0.66016-0.13184,0.79199-0.30762l0.5498,2.02441
			c-0.39551,0.35156-1.07812,0.61523-2.0459,0.61523C636.75293,96.16309,635.89551,95.21777,635.89551,93.34668z"/>
	</g>
</g>
<g>
	<g>
		<line class="st6" x1="469.96439" y1="386.25439" x2="465.00684" y2="381.29688"/>
		<line class="st6" x1="469.96439" y1="386.25439" x2="465.00684" y2="391.21194"/>
	</g>
	<g>
		<line class="st6" x1="159" y1="386.25439" x2="163.95753" y2="381.29688"/>
		<line class="st6" x1="159" y1="386.25439" x2="163.95753" y2="391.21194"/>
	</g>
	<line class="st7" x1="159" y1="386.25439" x2="469.96439" y2="386.25439"/>
</g>
<rect x="510.99997" y="352.61731" class="st8" width="19.39697" height="108.74695"/>
<g>
	<g>
		<rect x="467.43375" y="427.29001" class="st4" width="87.13252" height="40.77462"/>
		<path class="st5" d="M484.271,427.28809h2.2207v13.34277h-2.2207V427.28809z"/>
		<path class="st5" d="M494.29199,434.0498c0-1.14062-0.52002-1.56055-1.38037-1.56055s-1.60059,0.66016-1.96045,1.33984v6.80176
			h-2.00049v-9.66211h2.00049v1.30078c0.52002-0.78027,1.60059-1.54102,2.80078-1.54102c1.74023,0,2.54053,0.95996,2.54053,2.62109
			v7.28125h-2.00049V434.0498z"/>
		<path class="st5" d="M499.39062,441.79102c0.66016,0.7207,1.50049,1.08008,2.50049,1.08008
			c1.2002,0,2.28076-0.66016,2.28076-2.41992v-1.38086c-0.58057,0.98047-1.52051,1.58008-2.48096,1.58008
			c-2.16016,0-3.52051-1.86035-3.52051-4.96094c0-3.06055,1.34033-4.96094,3.52051-4.96094c0.94043,0,1.88037,0.5,2.48096,1.54102
			v-1.30078h1.97998v9.32227c0,3.34082-2.08008,4.26074-4.16064,4.26074c-1.38037,0-2.46045-0.32031-3.4209-1.2207
			L499.39062,441.79102z M504.17188,433.80957c-0.34033-0.7207-1.12061-1.32031-1.88086-1.32031
			c-1.37988,0-2.06006,1.33984-2.06006,3.2002c0,1.84082,0.68018,3.18066,2.06006,3.18066
			c0.76025,0,1.54053-0.59961,1.88086-1.32031V433.80957z"/>
		<path class="st5" d="M508.51025,430.96875h2.00049v1.41992c0.56006-0.93945,1.58057-1.63965,2.66016-1.63965v1.98047
			c-0.16016-0.04004-0.33984-0.06055-0.51953-0.06055c-0.82031,0-1.74072,0.62012-2.14062,1.34082v6.62109h-2.00049V430.96875z"/>
		<path class="st5" d="M518.33105,430.72852c2.62012,0,4.02051,2.2207,4.02051,5.1416v0.58008h-6.14062
			c0.08008,1.58008,0.95996,2.78027,2.52051,2.78027c0.75977,0,1.62012-0.37988,2.17969-1.04004l0.96094,1.2002
			c-0.82031,0.94043-2.04102,1.48047-3.34082,1.48047c-2.66113,0-4.34082-2.08105-4.34082-5.08105
			C514.19043,432.98926,515.75,430.72852,518.33105,430.72852z M516.19043,435.0293h4.2207
			c-0.01953-1.2002-0.55957-2.68066-2.10059-2.68066C516.81055,432.34863,516.25098,433.86914,516.19043,435.0293z"/>
		<path class="st5" d="M524.29004,438.08984c0.58008,0.64062,1.60059,1.20117,2.60059,1.20117s1.60059-0.46094,1.60059-1.20117
			c0-0.7998-0.83984-1.16016-1.82031-1.51953c-1.36035-0.48047-2.96094-1.06055-2.96094-3.08105
			c0-1.5,1.2002-2.76074,3.32129-2.76074c1.33984,0,2.41992,0.5,3.18066,1.24023l-0.84082,1.36035
			c-0.47949-0.58008-1.33984-1.01953-2.2998-1.01953c-0.90039,0-1.48047,0.43945-1.48047,1.05957
			c0,0.7207,0.7998,1.06055,1.75977,1.40039c1.38086,0.5,3.04102,1.10059,3.04102,3.2207c0,1.66016-1.33984,2.88086-3.46094,2.88086
			c-1.48047,0-2.7207-0.5-3.54102-1.38086L524.29004,438.08984z"/>
		<path class="st5" d="M532.30957,438.08984c0.58008,0.64062,1.60059,1.20117,2.60059,1.20117s1.60059-0.46094,1.60059-1.20117
			c0-0.7998-0.83984-1.16016-1.82031-1.51953c-1.36035-0.48047-2.96094-1.06055-2.96094-3.08105
			c0-1.5,1.2002-2.76074,3.32129-2.76074c1.33984,0,2.41992,0.5,3.18066,1.24023l-0.84082,1.36035
			c-0.47949-0.58008-1.33984-1.01953-2.2998-1.01953c-0.90039,0-1.48047,0.43945-1.48047,1.05957
			c0,0.7207,0.7998,1.06055,1.75977,1.40039c1.38086,0.5,3.04102,1.10059,3.04102,3.2207c0,1.66016-1.33984,2.88086-3.46094,2.88086
			c-1.48047,0-2.7207-0.5-3.54102-1.38086L532.30957,438.08984z"/>
		<path class="st5" d="M473.61133,453.96973c0-4.02148,2.10059-6.90137,5.38086-6.90137c2.38086,0,3.58105,1.45996,4.28125,2.94043
			l-1.84033,0.82031c-0.46045-1.06055-1.28027-1.80078-2.44092-1.80078c-1.90039,0-3.12061,2.08008-3.12061,4.94141
			c0,2.83984,1.22021,4.9209,3.12061,4.9209c1.22021,0,2.04053-0.83984,2.46094-1.96094l1.84033,0.82031
			c-0.68018,1.56055-1.88037,3.12109-4.30127,3.12109C475.71191,460.87109,473.61133,457.9707,473.61133,453.96973z"/>
		<path class="st5" d="M484.47119,455.79004c0-2.7207,1.44043-5.06152,4.18066-5.06152c2.74072,0,4.18115,2.34082,4.18115,5.06152
			s-1.44043,5.08105-4.18115,5.08105C485.91162,460.87109,484.47119,458.51074,484.47119,455.79004z M490.77246,455.79004
			c0-1.74023-0.66016-3.30078-2.12061-3.30078c-1.45996,0-2.12012,1.56055-2.12012,3.30078s0.66016,3.32031,2.12012,3.32031
			C490.1123,459.11035,490.77246,457.53027,490.77246,455.79004z"/>
		<path class="st5" d="M500.05225,454.0498c0-1.14062-0.52002-1.56055-1.38037-1.56055s-1.60059,0.66016-1.96045,1.33984v6.80176
			h-2.00049v-9.66211h2.00049v1.30078c0.52002-0.78027,1.60059-1.54102,2.80078-1.54102c1.74023,0,2.54053,0.95996,2.54053,2.62109
			v7.28125h-2.00049V454.0498z"/>
		<path class="st5" d="M504.771,458.4707v-5.76172h-1.26025v-1.74023h1.26025v-2.64062h2v2.64062h1.60059v1.74023H506.771v5.3418
			c0,0.65918,0.22021,1.05957,0.74023,1.05957c0.32031,0,0.62012-0.13965,0.76025-0.32031l0.47998,1.50098
			c-0.35986,0.35938-0.91992,0.58008-1.74023,0.58008C505.49072,460.87109,504.771,460.05078,504.771,458.4707z"/>
		<path class="st5" d="M510.07031,450.96875h2.00049v1.41992c0.56006-0.93945,1.58057-1.63965,2.66064-1.63965v1.98047
			c-0.16016-0.04004-0.34082-0.06055-0.52051-0.06055c-0.82031,0-1.74023,0.62012-2.14014,1.34082v6.62109h-2.00049V450.96875z"/>
		<path class="st5" d="M515.75,455.79004c0-2.7207,1.44043-5.06152,4.18066-5.06152c2.74121,0,4.18164,2.34082,4.18164,5.06152
			s-1.44043,5.08105-4.18164,5.08105C517.19043,460.87109,515.75,458.51074,515.75,455.79004z M522.05176,455.79004
			c0-1.74023-0.66016-3.30078-2.12109-3.30078c-1.45996,0-2.12012,1.56055-2.12012,3.30078s0.66016,3.32031,2.12012,3.32031
			C521.3916,459.11035,522.05176,457.53027,522.05176,455.79004z"/>
		<path class="st5" d="M525.99023,447.28809h2v13.34277h-2V447.28809z"/>
		<path class="st5" d="M530.34961,447.28809h2.00098v13.34277h-2.00098V447.28809z"/>
		<path class="st5" d="M538.37012,450.72852c2.62109,0,4.02148,2.2207,4.02148,5.1416v0.58008H536.25
			c0.08008,1.58008,0.95996,2.78027,2.52051,2.78027c0.76074,0,1.62012-0.37988,2.18066-1.04004l0.95996,1.2002
			c-0.82031,0.94043-2.04004,1.48047-3.34082,1.48047c-2.66016,0-4.34082-2.08105-4.34082-5.08105
			C534.22949,452.98926,535.79004,450.72852,538.37012,450.72852z M536.23047,455.0293h4.2207
			c-0.02051-1.2002-0.56055-2.68066-2.10059-2.68066C536.85059,452.34863,536.29004,453.86914,536.23047,455.0293z"/>
		<path class="st5" d="M544.18945,450.96875h2.00098v1.41992c0.55957-0.93945,1.58008-1.63965,2.66016-1.63965v1.98047
			c-0.16016-0.04004-0.33984-0.06055-0.51953-0.06055c-0.82031,0-1.74121,0.62012-2.14062,1.34082v6.62109h-2.00098V450.96875z"/>
	</g>
</g>
<g>
	<circle class="st9" cx="99" cy="386.25439" r="50"/>
	<g>
		<g>
			<path class="st10" d="M87.39014,364.19861c-0.64095-1.67496-2.88541-2.86734-7.65846-3.00937l0,0
				c-4.37804,0-9.24908,2.64261-9.24908,9.51331v5.021v1.32129c0,4.74393,2.16006,8.83878,5.28519,10.74719"/>
			<path class="st11" d="M74.44648,386.8046v2.13193c0,1.32129,0.66065,3.30325-6.60649,4.62454
				c-6.5,1.18198-7.66968,7.26715-7.66968,7.26715h17.18945"/>
			<line class="st12" x1="73.12518" y1="391.86499" x2="78.58758" y2="399.11902"/>
		</g>
		<g>
			<g>
				<path class="st10" d="M127.53796,377.04483v-1.32129v-5.021c0-6.8707-4.87096-9.51331-9.24909-9.51331l0,0
					c0,0-4.35929-0.25171-7.02222,2.13199"/>
				<path class="st11" d="M120.64025,400.82822h17.18945c0,0-1.1749-6.05777-7.66974-7.26715
					c-7.08138-1.31839-6.6065-3.30325-6.6065-4.62454l0.02061-2.08224"/>
				<line class="st12" x1="119.41243" y1="399.11902" x2="124.89537" y2="391.82462"/>
			</g>
		</g>
		<path class="st10" d="M122.25262,387.79202c3.12514-1.90842,5.28519-6.00327,5.28519-10.74719"/>
		<path class="st12" d="M91.26941,393.85245c-1.07895,0.49136-2.96358,1.09433-6.25301,2.03949
			c-7.52876,2.16327-9.09387,8.61658-9.09387,8.61658h46.36313c0,0-1.48158-6.7695-9.09395-8.61658
			c-3.34763-0.81229-5.22746-1.44113-6.27992-2.00739"/>
		<polyline class="st12" points="91.28301,393.88089 99.11627,404.50851 106.94954,393.83304 		"/>
		<g>
			<path class="st12" d="M112.65945,392.67297h-8.90166c3.70544-2.26279,5.88634-6.98819,6.44603-12.58511
				c0.30695-3.06952-0.30695-6.75299-0.30695-6.75299s-0.91015-8.90164-6.75298-8.90164c-5.81767,0-8.07995,4.759-15.89458,5.44131
				l-1.90874,0.08386c0.67342,0,1.30567-0.03122,1.90874-0.08386l1.40923-0.06192c-0.36546,1.38901-0.50883,4.92947-0.50883,4.92947
				v1.56668c0,5.62482,2.38708,14.10141,6.09252,16.3642h-8.90166c0,0-2.45564,0.30695-2.45564-3.68344v-3.68344
				c-0.61391-29.16061,16.26855-27.9328,16.26855-27.9328c19.952-0.30698,16.88246,30.38843,16.88246,30.38843
				S116.3429,392.36603,112.65945,392.67297z"/>
			<path class="st13" d="M87.2493,369.87454l-1.90874,0.08386C86.01398,369.9584,86.64623,369.92719,87.2493,369.87454z"/>
		</g>
		<path class="st12" d="M70.48259,371.9967c7.92779,0,7.2086-6.00455,15.04311-5.02631"/>
		<path class="st12" d="M126.78558,371.6777c-6.94261,0-6.3128-5.25836-13.17371-4.4017"/>
	</g>
</g>
<g>
	<path class="st14" d="M933,358.68469c0,6.91333-5.65637,12.5697-12.5697,12.5697H771.77252
		c-6.91333,0-12.5697-5.65637-12.5697-12.5697V77.5697c0-6.91334,5.65637-12.5697,12.5697-12.5697H920.4303
		C927.34363,65,933,70.65636,933,77.5697V358.68469z"/>
	<path class="st15" d="M933,358.68469c0,6.91333-5.65637,12.5697-12.5697,12.5697H771.77252
		c-6.91333,0-12.5697-5.65637-12.5697-12.5697V77.5697c0-6.91334,5.65637-12.5697,12.5697-12.5697H920.4303
		C927.34363,65,933,70.65636,933,77.5697V358.68469z"/>
</g>
<g>
	<rect x="771.76007" y="75" class="st4" width="148.68269" height="19.0796"/>
	<path class="st5" d="M779.10156,74.98633h5.04102c2.26074,0,3.44043,1.5,3.44043,3.40039
		c0,1.68066-0.91992,2.74121-2.10059,3.06055c1.32031,0.2002,2.32031,1.64062,2.32031,3.28125
		c0,2.08008-1.16016,3.60059-3.5,3.60059h-5.20117V74.98633z M783.66211,80.54785c1.12012,0,1.64062-0.74023,1.64062-1.80078
		c0-1.04004-0.52051-1.82031-1.64062-1.82031h-2.33984v3.62109H783.66211z M783.74219,86.36914
		c1.18066,0,1.78027-0.7207,1.78027-1.94043c0-1.06055-0.58008-1.9209-1.78027-1.9209h-2.41992v3.86133H783.74219z"/>
	<path class="st5" d="M794.80176,87.34863c-0.58008,0.80078-1.55957,1.2207-2.54004,1.2207
		c-1.56055,0-2.96094-1.16016-2.96094-3.2207c0-2.08105,1.40039-3.14062,2.96094-3.14062c0.98047,0,1.98047,0.37988,2.54004,1.16016
		v-1.40039c0-1.16016-0.67969-1.84082-1.87988-1.84082c-0.86035,0-1.66016,0.34082-2.40039,1.10059l-0.78027-1.40039
		c0.98047-0.98047,2.30078-1.40039,3.54102-1.40039c2.02051,0,3.5,0.94043,3.5,3.30078v6.60156h-1.98047V87.34863z
		 M794.80176,84.66797c-0.37988-0.67969-1.09961-1.08008-1.82031-1.08008c-1.04004,0-1.67969,0.76074-1.67969,1.80078
		s0.63965,1.7998,1.67969,1.7998c0.7207,0,1.44043-0.39941,1.82031-1.05957V84.66797z"/>
	<path class="st5" d="M804.48242,81.74805c0-1.14062-0.52051-1.56055-1.38086-1.56055s-1.60059,0.66016-1.95996,1.33984v6.80176
		h-2.00098v-9.66211h2.00098v1.30078c0.51953-0.78027,1.60059-1.54102,2.80078-1.54102c1.74023,0,2.54004,0.95996,2.54004,2.62109
		v7.28125h-2V81.74805z"/>
	<path class="st5" d="M812.00098,84.28809l-1.16016,1.56055v2.48047h-2V74.98633h2v8.42188l3.40137-4.74121h2.32031
		l-3.20117,4.34082l3.26074,5.32129h-2.33984L812.00098,84.28809z"/>
	<path class="st5" d="M817.70117,75.82617c0-0.7002,0.58008-1.25977,1.25977-1.25977c0.68066,0,1.24023,0.55957,1.24023,1.25977
		c0,0.68066-0.55957,1.24023-1.24023,1.24023C818.28125,77.06641,817.70117,76.50684,817.70117,75.82617z M817.96094,78.66699h2
		v9.66211h-2V78.66699z"/>
	<path class="st5" d="M827.66211,81.74805c0-1.14062-0.52051-1.56055-1.38086-1.56055s-1.60059,0.66016-1.95996,1.33984v6.80176
		h-2.00098v-9.66211h2.00098v1.30078c0.51953-0.78027,1.60059-1.54102,2.80078-1.54102c1.74023,0,2.54004,0.95996,2.54004,2.62109
		v7.28125h-2V81.74805z"/>
	<path class="st5" d="M832.76074,89.48926c0.66016,0.7207,1.5,1.08008,2.5,1.08008c1.2002,0,2.28125-0.66016,2.28125-2.41992
		v-1.38086c-0.58105,0.98047-1.52051,1.58008-2.48145,1.58008c-2.16016,0-3.52051-1.86035-3.52051-4.96094
		c0-3.06055,1.34082-4.96094,3.52051-4.96094c0.94043,0,1.88086,0.5,2.48145,1.54102v-1.30078h1.97949v9.32227
		c0,3.34082-2.08008,4.26074-4.16016,4.26074c-1.38086,0-2.46094-0.32031-3.4209-1.2207L832.76074,89.48926z M837.54199,81.50781
		c-0.34082-0.7207-1.12109-1.32031-1.88086-1.32031c-1.37988,0-2.06055,1.33984-2.06055,3.2002
		c0,1.84082,0.68066,3.18066,2.06055,3.18066c0.75977,0,1.54004-0.59961,1.88086-1.32031V81.50781z"/>
	<path class="st5" d="M852.58105,85.68848H848l-0.71973,2.64062h-2.30078l3.98145-13.34277h2.66016l3.98047,13.34277h-2.2998
		L852.58105,85.68848z M848.45996,83.72852h3.68164l-1.84082-6.76172L848.45996,83.72852z"/>
	<path class="st5" d="M856.83984,92.00977V78.66699h2v1.28027c0.56055-0.95996,1.50098-1.52051,2.48047-1.52051
		c2.18066,0,3.52148,1.94043,3.52148,5.06152c0,3.08008-1.34082,5.08105-3.52148,5.08105c-0.95996,0-1.90039-0.5-2.48047-1.54004
		v4.98047H856.83984z M860.7207,80.1875c-0.76074,0-1.54102,0.58008-1.88086,1.32031v3.96094
		c0.33984,0.71973,1.12012,1.33984,1.88086,1.33984c1.37988,0,2.06055-1.45996,2.06055-3.32031S862.10059,80.1875,860.7207,80.1875z
		"/>
	<path class="st5" d="M866.69922,92.00977V78.66699h2.00098v1.28027c0.55957-0.95996,1.5-1.52051,2.48047-1.52051
		c2.18066,0,3.52051,1.94043,3.52051,5.06152c0,3.08008-1.33984,5.08105-3.52051,5.08105c-0.95996,0-1.90039-0.5-2.48047-1.54004
		v4.98047H866.69922z M870.58008,80.1875c-0.75977,0-1.54004,0.58008-1.87988,1.32031v3.96094
		c0.33984,0.71973,1.12012,1.33984,1.87988,1.33984c1.38086,0,2.06055-1.45996,2.06055-3.32031S871.96094,80.1875,870.58008,80.1875
		z"/>
	<path class="st5" d="M879.65918,74.98633h2.40039l2.9209,10.72266l2.90039-10.72266h2.40039l-3.98047,13.34277h-2.66113
		L879.65918,74.98633z"/>
	<path class="st5" d="M898.13867,77.86719l-2.04004,2.14062l-1.2998-1.36035l3.62012-3.66113h1.9209V88.3291h-2.20117V77.86719z"/>
	<path class="st5" d="M904.03906,85.84863c0.74023,0,1.33984,0.62012,1.33984,1.33984c0,0.74023-0.59961,1.36035-1.33984,1.36035
		c-0.7207,0-1.34082-0.62012-1.34082-1.36035C902.69824,86.46875,903.31836,85.84863,904.03906,85.84863z"/>
	<path class="st5" d="M911.45996,76.92676h-5.58105v-1.94043h8.08203v1.52051l-4.20117,11.82227h-2.38086L911.45996,76.92676z"/>
</g>
<g>
	<g>
		<g>
			<path class="st16" d="M893.31134,351.25446c0,2.75-2.25,5-5,5h-84.41986c-2.75,0-5-2.25-5-5v-60.88821c0-2.75,2.25-5,5-5
				h84.41986c2.75,0,5,2.25,5,5V351.25446z"/>
			<path class="st17" d="M893.31134,351.25446c0,2.75-2.25,5-5,5h-84.41986c-2.75,0-5-2.25-5-5v-60.88821c0-2.75,2.25-5,5-5
				h84.41986c2.75,0,5,2.25,5,5V351.25446z"/>
		</g>
		<g>
			<path class="st18" d="M893.31128,351.25446c0,2.75-2.25,5-5,5h-84.4198c-2.75,0-5-2.25-5-5v-60.88821c0-2.75,2.25-5,5-5h84.4198
				c2.75,0,5,2.25,5,5V351.25446z"/>
		</g>
	</g>
	<g>
		<g>
			<path class="st14" d="M828.78058,322.86685c0.18811,0.32623,0.45325,0.58075,0.75916,0.7533l15.52942,8.96591l0.00049-0.00049
				c0.30298,0.17841,0.6554,0.28067,1.03204,0.28067s0.72955-0.10226,1.03204-0.28067l15.52991-8.96591
				c0.30585-0.17255,0.57007-0.42657,0.75861-0.75281c0.1886-0.32623,0.27631-0.68253,0.27295-1.03397v-17.93182l-0.00049-0.00049
				c0.00287-0.35095-0.08484-0.70776-0.27295-1.034c-0.18854-0.32623-0.45374-0.5802-0.75909-0.75327l-15.52991-8.96591v-0.00049
				c-0.30249-0.17838-0.65491-0.28067-1.03156-0.28067c-0.37616,0-0.72858,0.10229-1.03107,0.28067v0.00049l-15.52942,8.96591
				c-0.30591,0.17307-0.57104,0.42706-0.75964,0.7533c-0.18805,0.32623-0.27582,0.68301-0.27289,1.03397l-0.00049,0.00049v17.93182
				c-0.00342,0.35144,0.08435,0.70773,0.2724,1.03397"/>
			<path class="st19" d="M847.13367,313.46185l16.56158-9.56152l-0.00061,0.00024l0.00049,0.00049v17.93182
				c0.00342,0.35144-0.08435,0.70773-0.27289,1.03397c-0.1886,0.32623-0.45276,0.58026-0.75867,0.75281l-15.52991,8.96591V313.46185
				z"/>
			<path class="st20" d="M847.13367,313.46185l16.56158-9.56152l-0.00061,0.00024l0.00049,0.00049v17.93182
				c0.00342,0.35144-0.08435,0.70773-0.27289,1.03397c-0.1886,0.32623-0.45276,0.58026-0.75867,0.75281l-15.52991,8.96591V313.46185
				z"/>
			<path class="st20" d="M846.10126,311.67505l-16.56128-9.56198l0.00049,0.0004l0.00018-0.00067l15.52942-8.96591
				c0.30267-0.17865,0.65509-0.28082,1.03186-0.28064c0.37683,0.00018,0.72894,0.10199,1.03131,0.28058l15.52966,8.96634
				L846.10126,311.67505z"/>
			<path class="st20" d="M845.06909,313.46185l-16.56152-9.56152l0.00055,0.00024l-0.00049,0.00049v17.93182
				c-0.00336,0.35144,0.08435,0.70773,0.27295,1.03397c0.18854,0.32623,0.45276,0.58026,0.75861,0.75281l15.52991,8.96591V313.46185
				z"/>
		</g>
		<g>
			<rect x="826.39148" y="337.86624" class="st4" width="39.4199" height="10.88819"/>
			<path class="st5" d="M835.31055,337.8623h3.63281c2.09766,0,3.15332,1.53711,3.15332,3.31348
				c0,1.79297-1.05566,3.33008-3.15332,3.33008h-1.85645v4.0332h-1.77637V337.8623z M838.73535,339.41504h-1.64844v3.52148h1.64844
				c0.94434,0,1.55273-0.7041,1.55273-1.76074C840.28809,340.12012,839.67969,339.41504,838.73535,339.41504z"/>
			<path class="st5" d="M842.76562,344.66504c0-2.17676,1.15234-4.04883,3.3457-4.04883c2.19238,0,3.34473,1.87207,3.34473,4.04883
				c0,2.17773-1.15234,4.06641-3.34473,4.06641C843.91797,348.73145,842.76562,346.84277,842.76562,344.66504z M847.80664,344.66504
				c0-1.39258-0.52734-2.64062-1.69531-2.64062c-1.16895,0-1.69727,1.24805-1.69727,2.64062s0.52832,2.65723,1.69727,2.65723
				C847.2793,347.32227,847.80664,346.05762,847.80664,344.66504z"/>
			<path class="st5" d="M855.375,347.51465c-0.46484,0.76855-1.2168,1.2168-1.98438,1.2168
				c-1.72949,0-2.81836-1.56934-2.81836-4.0498c0-2.44922,1.07324-4.06543,2.81836-4.06543
				c0.75195,0,1.51953,0.39941,1.98438,1.23242v-3.98633h1.60059v10.67676H855.375V347.51465z M855.375,343.08105
				c-0.27246-0.57617-0.89648-1.05664-1.50488-1.05664c-1.10449,0-1.64844,1.15234-1.64844,2.65723
				c0,1.47266,0.54395,2.64062,1.64844,2.64062c0.6084,0,1.23242-0.47949,1.50488-1.05566V343.08105z"/>
		</g>
	</g>
</g>
<g>
	<g>
		<g>
			<path class="st16" d="M893.31134,169.36705c0,2.75-2.25,5-5,5h-84.41986c-2.75,0-5-2.25-5-5v-60.8882c0-2.75,2.25-5,5-5h84.41986
				c2.75,0,5,2.25,5,5V169.36705z"/>
			<path class="st17" d="M893.31134,169.36705c0,2.75-2.25,5-5,5h-84.41986c-2.75,0-5-2.25-5-5v-60.8882c0-2.75,2.25-5,5-5h84.41986
				c2.75,0,5,2.25,5,5V169.36705z"/>
		</g>
		<g>
			<path class="st18" d="M893.31128,169.36707c0,2.75-2.25,5-5,5h-84.4198c-2.75,0-5-2.25-5-5v-60.88818c0-2.75,2.25-5,5-5h84.4198
				c2.75,0,5,2.25,5,5V169.36707z"/>
		</g>
	</g>
	<g>
		<g>
			<path class="st14" d="M828.78058,140.97946c0.18811,0.32623,0.45325,0.58073,0.75916,0.7533l15.52942,8.96591l0.00049-0.00047
				c0.30298,0.17838,0.6554,0.28067,1.03204,0.28067s0.72955-0.10229,1.03204-0.28067l15.52991-8.96591
				c0.30585-0.17258,0.57007-0.42659,0.75861-0.75282c0.1886-0.32623,0.27631-0.68253,0.27295-1.03397v-17.93182l-0.00049-0.00049
				c0.00287-0.35095-0.08484-0.70776-0.27295-1.034c-0.18854-0.32623-0.45374-0.58021-0.75909-0.75326l-15.52991-8.96591v-0.00049
				c-0.30249-0.17839-0.65491-0.28067-1.03156-0.28067c-0.37616,0-0.72858,0.10228-1.03107,0.28067v0.00049l-15.52942,8.96591
				c-0.30591,0.17305-0.57104,0.42706-0.75964,0.7533c-0.18805,0.32623-0.27582,0.68301-0.27289,1.03397l-0.00049,0.00049v17.93182
				c-0.00342,0.35144,0.08435,0.70773,0.2724,1.03397"/>
			<path class="st19" d="M847.13367,131.57446l16.56158-9.56152l-0.00061,0.00024l0.00049,0.00049v17.93182
				c0.00342,0.35144-0.08435,0.70773-0.27289,1.03397c-0.1886,0.32623-0.45276,0.58025-0.75867,0.75282l-15.52991,8.96591V131.57446
				z"/>
			<path class="st20" d="M847.13367,131.57446l16.56158-9.56152l-0.00061,0.00024l0.00049,0.00049v17.93182
				c0.00342,0.35144-0.08435,0.70773-0.27289,1.03397c-0.1886,0.32623-0.45276,0.58025-0.75867,0.75282l-15.52991,8.96591V131.57446
				z"/>
			<path class="st20" d="M846.10126,129.78764l-16.56128-9.56197l0.00049,0.00038l0.00018-0.00066l15.52942-8.96591
				c0.30267-0.17866,0.65509-0.28082,1.03186-0.28063c0.37683,0.00018,0.72894,0.10197,1.03131,0.28059l15.52966,8.96634
				L846.10126,129.78764z"/>
			<path class="st20" d="M845.06909,131.57446l-16.56152-9.56152l0.00055,0.00024l-0.00049,0.00049v17.93182
				c-0.00336,0.35144,0.08435,0.70773,0.27295,1.03397c0.18854,0.32623,0.45276,0.58025,0.75861,0.75282l15.52991,8.96591V131.57446
				z"/>
		</g>
		<g>
			<rect x="826.39148" y="155.97887" class="st4" width="39.4199" height="10.88819"/>
			<path class="st5" d="M835.31055,155.97461h3.63281c2.09766,0,3.15332,1.53711,3.15332,3.31348
				c0,1.79297-1.05566,3.33008-3.15332,3.33008h-1.85645v4.0332h-1.77637V155.97461z M838.73535,157.52734h-1.64844v3.52148h1.64844
				c0.94434,0,1.55273-0.7041,1.55273-1.76074C840.28809,158.23242,839.67969,157.52734,838.73535,157.52734z"/>
			<path class="st5" d="M842.76562,162.77734c0-2.17676,1.15234-4.04883,3.3457-4.04883c2.19238,0,3.34473,1.87207,3.34473,4.04883
				c0,2.17773-1.15234,4.06641-3.34473,4.06641C843.91797,166.84375,842.76562,164.95508,842.76562,162.77734z M847.80664,162.77734
				c0-1.39258-0.52734-2.64062-1.69531-2.64062c-1.16895,0-1.69727,1.24805-1.69727,2.64062s0.52832,2.65723,1.69727,2.65723
				C847.2793,165.43457,847.80664,164.16992,847.80664,162.77734z"/>
			<path class="st5" d="M855.375,165.62695c-0.46484,0.76855-1.2168,1.2168-1.98438,1.2168
				c-1.72949,0-2.81836-1.56934-2.81836-4.0498c0-2.44922,1.07324-4.06543,2.81836-4.06543
				c0.75195,0,1.51953,0.39941,1.98438,1.23242v-3.98633h1.60059v10.67676H855.375V165.62695z M855.375,161.19336
				c-0.27246-0.57617-0.89648-1.05664-1.50488-1.05664c-1.10449,0-1.64844,1.15234-1.64844,2.65723
				c0,1.47266,0.54395,2.64062,1.64844,2.64062c0.6084,0,1.23242-0.47949,1.50488-1.05566V161.19336z"/>
		</g>
	</g>
</g>
<g>
	<g>
		<g>
			<path class="st16" d="M893.31134,260.3107c0,2.75-2.25,5-5,5h-84.41986c-2.75,0-5-2.25-5-5v-60.8882c0-2.75,2.25-5,5-5h84.41986
				c2.75,0,5,2.25,5,5V260.3107z"/>
			<path class="st17" d="M893.31134,260.3107c0,2.75-2.25,5-5,5h-84.41986c-2.75,0-5-2.25-5-5v-60.8882c0-2.75,2.25-5,5-5h84.41986
				c2.75,0,5,2.25,5,5V260.3107z"/>
		</g>
		<g>
			<path class="st18" d="M893.31128,260.3107c0,2.75-2.25,5-5,5h-84.4198c-2.75,0-5-2.25-5-5v-60.88821c0-2.75,2.25-5,5-5h84.4198
				c2.75,0,5,2.25,5,5V260.3107z"/>
		</g>
	</g>
	<g>
		<g>
			<path class="st14" d="M828.78058,231.92311c0.18811,0.32623,0.45325,0.58073,0.75916,0.7533l15.52942,8.96591l0.00049-0.00049
				c0.30298,0.17839,0.6554,0.28067,1.03204,0.28067s0.72955-0.10228,1.03204-0.28067l15.52991-8.9659
				c0.30585-0.17258,0.57007-0.42659,0.75861-0.75282c0.1886-0.32623,0.27631-0.68253,0.27295-1.03397v-17.93182l-0.00049-0.00049
				c0.00287-0.35095-0.08484-0.70776-0.27295-1.034c-0.18854-0.32625-0.45374-0.58022-0.75909-0.75327l-15.52991-8.96591v-0.00049
				c-0.30249-0.17839-0.65491-0.28065-1.03156-0.28065c-0.37616,0-0.72858,0.10226-1.03107,0.28065v0.00049l-15.52942,8.96591
				c-0.30591,0.17305-0.57104,0.42706-0.75964,0.7533c-0.18805,0.32623-0.27582,0.68301-0.27289,1.03397l-0.00049,0.00049v17.93182
				c-0.00342,0.35144,0.08435,0.70773,0.2724,1.03397"/>
			<path class="st19" d="M847.13367,222.51811l16.56158-9.56152l-0.00061,0.00024l0.00049,0.00049v17.93182
				c0.00342,0.35144-0.08435,0.70773-0.27289,1.03397c-0.1886,0.32623-0.45276,0.58025-0.75867,0.75282l-15.52991,8.9659V222.51811z
				"/>
			<path class="st20" d="M847.13367,222.51811l16.56158-9.56152l-0.00061,0.00024l0.00049,0.00049v17.93182
				c0.00342,0.35144-0.08435,0.70773-0.27289,1.03397c-0.1886,0.32623-0.45276,0.58025-0.75867,0.75282l-15.52991,8.9659V222.51811z
				"/>
			<path class="st20" d="M846.10126,220.73129l-16.56128-9.56197l0.00049,0.00038l0.00018-0.00066l15.52942-8.96591
				c0.30267-0.17867,0.65509-0.28082,1.03186-0.28064c0.37683,0.00018,0.72894,0.10197,1.03131,0.28058l15.52966,8.96634
				L846.10126,220.73129z"/>
			<path class="st20" d="M845.06909,222.51811l-16.56152-9.56152l0.00055,0.00024l-0.00049,0.00049v17.93182
				c-0.00336,0.35144,0.08435,0.70773,0.27295,1.03397c0.18854,0.32623,0.45276,0.58025,0.75861,0.75282l15.52991,8.9659V222.51811z
				"/>
		</g>
		<g>
			<rect x="826.39148" y="246.92252" class="st4" width="39.4199" height="10.8882"/>
			<path class="st5" d="M835.31055,246.91797h3.63281c2.09766,0,3.15332,1.53711,3.15332,3.31348
				c0,1.79297-1.05566,3.33008-3.15332,3.33008h-1.85645v4.0332h-1.77637V246.91797z M838.73535,248.4707h-1.64844v3.52148h1.64844
				c0.94434,0,1.55273-0.7041,1.55273-1.76074C840.28809,249.17578,839.67969,248.4707,838.73535,248.4707z"/>
			<path class="st5" d="M842.76562,253.7207c0-2.17676,1.15234-4.04883,3.3457-4.04883c2.19238,0,3.34473,1.87207,3.34473,4.04883
				c0,2.17773-1.15234,4.06641-3.34473,4.06641C843.91797,257.78711,842.76562,255.89844,842.76562,253.7207z M847.80664,253.7207
				c0-1.39258-0.52734-2.64062-1.69531-2.64062c-1.16895,0-1.69727,1.24805-1.69727,2.64062s0.52832,2.65723,1.69727,2.65723
				C847.2793,256.37793,847.80664,255.11328,847.80664,253.7207z"/>
			<path class="st5" d="M855.375,256.57031c-0.46484,0.76855-1.2168,1.2168-1.98438,1.2168
				c-1.72949,0-2.81836-1.56934-2.81836-4.0498c0-2.44922,1.07324-4.06543,2.81836-4.06543
				c0.75195,0,1.51953,0.39941,1.98438,1.23242v-3.98633h1.60059v10.67676H855.375V256.57031z M855.375,252.13672
				c-0.27246-0.57617-0.89648-1.05664-1.50488-1.05664c-1.10449,0-1.64844,1.15234-1.64844,2.65723
				c0,1.47266,0.54395,2.64062,1.64844,2.64062c0.6084,0,1.23242-0.47949,1.50488-1.05566V252.13672z"/>
		</g>
	</g>
</g>
<g>
	<path class="st14" d="M933,694.93909c0,6.91333-5.65637,12.5697-12.5697,12.5697H771.77252
		c-6.91333,0-12.5697-5.65637-12.5697-12.5697V413.8241c0-6.91333,5.65637-12.5697,12.5697-12.5697H920.4303
		c6.91333,0,12.5697,5.65637,12.5697,12.5697V694.93909z"/>
	<path class="st15" d="M933,694.93909c0,6.91333-5.65637,12.5697-12.5697,12.5697H771.77252
		c-6.91333,0-12.5697-5.65637-12.5697-12.5697V413.8241c0-6.91333,5.65637-12.5697,12.5697-12.5697H920.4303
		c6.91333,0,12.5697,5.65637,12.5697,12.5697V694.93909z"/>
</g>
<g>
	<g>
		<g>
			<path class="st16" d="M893.31134,687.50885c0,2.75-2.25,5-5,5h-84.41986c-2.75,0-5-2.25-5-5v-60.88818c0-2.75,2.25-5,5-5
				h84.41986c2.75,0,5,2.25,5,5V687.50885z"/>
			<path class="st17" d="M893.31134,687.50885c0,2.75-2.25,5-5,5h-84.41986c-2.75,0-5-2.25-5-5v-60.88818c0-2.75,2.25-5,5-5
				h84.41986c2.75,0,5,2.25,5,5V687.50885z"/>
		</g>
		<g>
			<path class="st18" d="M893.31128,687.50885c0,2.75-2.25,5-5,5h-84.4198c-2.75,0-5-2.25-5-5v-60.88818c0-2.75,2.25-5,5-5h84.4198
				c2.75,0,5,2.25,5,5V687.50885z"/>
		</g>
	</g>
	<g>
		<g>
			<path class="st14" d="M828.78058,659.12128c0.18811,0.32623,0.45325,0.58069,0.75916,0.7533l15.52942,8.96588l0.00049-0.00049
				c0.30298,0.17841,0.6554,0.2807,1.03204,0.2807s0.72955-0.10229,1.03204-0.2807l15.52991-8.96588
				c0.30585-0.17261,0.57007-0.42657,0.75861-0.75281c0.1886-0.32623,0.27631-0.68256,0.27295-1.034v-17.93182l-0.00049-0.00049
				c0.00287-0.35095-0.08484-0.70776-0.27295-1.034c-0.18854-0.32623-0.45374-0.5802-0.75909-0.75323l-15.52991-8.96594v-0.00049
				c-0.30249-0.17841-0.65491-0.28064-1.03156-0.28064c-0.37616,0-0.72858,0.10223-1.03107,0.28064v0.00049l-15.52942,8.96594
				c-0.30591,0.17303-0.57104,0.42706-0.75964,0.7533c-0.18805,0.32623-0.27582,0.68298-0.27289,1.03394l-0.00049,0.00049v17.93182
				c-0.00342,0.35144,0.08435,0.70776,0.2724,1.034"/>
			<path class="st19" d="M847.13367,649.71625l16.56158-9.56152l-0.00061,0.00024l0.00049,0.00049v17.93182
				c0.00342,0.35144-0.08435,0.70776-0.27289,1.034c-0.1886,0.32623-0.45276,0.5802-0.75867,0.75281l-15.52991,8.96588V649.71625z"
				/>
			<path class="st20" d="M847.13367,649.71625l16.56158-9.56152l-0.00061,0.00024l0.00049,0.00049v17.93182
				c0.00342,0.35144-0.08435,0.70776-0.27289,1.034c-0.1886,0.32623-0.45276,0.5802-0.75867,0.75281l-15.52991,8.96588V649.71625z"
				/>
			<path class="st20" d="M846.10126,647.92944l-16.56128-9.56195l0.00049,0.00037l0.00018-0.00067l15.52942-8.96594
				c0.30267-0.17865,0.65509-0.28076,1.03186-0.28058c0.37683,0.00018,0.72894,0.10193,1.03131,0.28058l15.52966,8.96631
				L846.10126,647.92944z"/>
			<path class="st20" d="M845.06909,649.71625l-16.56152-9.56152l0.00055,0.00024l-0.00049,0.00049v17.93182
				c-0.00336,0.35144,0.08435,0.70776,0.27295,1.034c0.18854,0.32623,0.45276,0.5802,0.75861,0.75281l15.52991,8.96588V649.71625z"
				/>
		</g>
		<g>
			<rect x="826.39148" y="674.12067" class="st4" width="39.4199" height="10.88819"/>
			<path class="st5" d="M835.31055,674.11621h3.63281c2.09766,0,3.15332,1.53711,3.15332,3.31348
				c0,1.79297-1.05566,3.33008-3.15332,3.33008h-1.85645v4.0332h-1.77637V674.11621z M838.73535,675.66895h-1.64844v3.52148h1.64844
				c0.94434,0,1.55273-0.7041,1.55273-1.76074C840.28809,676.37402,839.67969,675.66895,838.73535,675.66895z"/>
			<path class="st5" d="M842.76562,680.91895c0-2.17676,1.15234-4.04883,3.3457-4.04883c2.19238,0,3.34473,1.87207,3.34473,4.04883
				c0,2.17773-1.15234,4.06641-3.34473,4.06641C843.91797,684.98535,842.76562,683.09668,842.76562,680.91895z M847.80664,680.91895
				c0-1.39258-0.52734-2.64062-1.69531-2.64062c-1.16895,0-1.69727,1.24805-1.69727,2.64062s0.52832,2.65723,1.69727,2.65723
				C847.2793,683.57617,847.80664,682.31152,847.80664,680.91895z"/>
			<path class="st5" d="M855.375,683.76855c-0.46484,0.76855-1.2168,1.2168-1.98438,1.2168
				c-1.72949,0-2.81836-1.56934-2.81836-4.0498c0-2.44922,1.07324-4.06543,2.81836-4.06543
				c0.75195,0,1.51953,0.39941,1.98438,1.23242v-3.98633h1.60059v10.67676H855.375V683.76855z M855.375,679.33496
				c-0.27246-0.57617-0.89648-1.05664-1.50488-1.05664c-1.10449,0-1.64844,1.15234-1.64844,2.65723
				c0,1.47266,0.54395,2.64062,1.64844,2.64062c0.6084,0,1.23242-0.47949,1.50488-1.05566V679.33496z"/>
		</g>
	</g>
</g>
<g>
	<g>
		<g>
			<path class="st16" d="M893.31134,505.62146c0,2.75-2.25,5-5,5h-84.41986c-2.75,0-5-2.25-5-5v-60.88821c0-2.75,2.25-5,5-5
				h84.41986c2.75,0,5,2.25,5,5V505.62146z"/>
			<path class="st17" d="M893.31134,505.62146c0,2.75-2.25,5-5,5h-84.41986c-2.75,0-5-2.25-5-5v-60.88821c0-2.75,2.25-5,5-5
				h84.41986c2.75,0,5,2.25,5,5V505.62146z"/>
		</g>
		<g>
			<path class="st18" d="M893.31128,505.62146c0,2.75-2.25,5-5,5h-84.4198c-2.75,0-5-2.25-5-5v-60.88821c0-2.75,2.25-5,5-5h84.4198
				c2.75,0,5,2.25,5,5V505.62146z"/>
		</g>
	</g>
	<g>
		<g>
			<path class="st14" d="M828.78058,477.23386c0.18811,0.32623,0.45325,0.58072,0.75916,0.7533l15.52942,8.96591l0.00049-0.00049
				c0.30298,0.17841,0.6554,0.28067,1.03204,0.28067s0.72955-0.10226,1.03204-0.28067l15.52991-8.96591
				c0.30585-0.17255,0.57007-0.42657,0.75861-0.75281c0.1886-0.32623,0.27631-0.68253,0.27295-1.03397v-17.93182l-0.00049-0.00049
				c0.00287-0.35095-0.08484-0.70776-0.27295-1.034c-0.18854-0.32623-0.45374-0.5802-0.75909-0.75327l-15.52991-8.96591v-0.00049
				c-0.30249-0.17838-0.65491-0.28067-1.03156-0.28067c-0.37616,0-0.72858,0.10229-1.03107,0.28067v0.00049l-15.52942,8.96591
				c-0.30591,0.17307-0.57104,0.42706-0.75964,0.7533c-0.18805,0.32623-0.27582,0.68301-0.27289,1.03397l-0.00049,0.00049v17.93182
				c-0.00342,0.35144,0.08435,0.70773,0.2724,1.03397"/>
			<path class="st19" d="M847.13367,467.82886l16.56158-9.56152l-0.00061,0.00024l0.00049,0.00049v17.93182
				c0.00342,0.35144-0.08435,0.70773-0.27289,1.03397c-0.1886,0.32623-0.45276,0.58026-0.75867,0.75281l-15.52991,8.96591V467.82886
				z"/>
			<path class="st20" d="M847.13367,467.82886l16.56158-9.56152l-0.00061,0.00024l0.00049,0.00049v17.93182
				c0.00342,0.35144-0.08435,0.70773-0.27289,1.03397c-0.1886,0.32623-0.45276,0.58026-0.75867,0.75281l-15.52991,8.96591V467.82886
				z"/>
			<path class="st20" d="M846.10126,466.04202l-16.56128-9.56195l0.00049,0.0004l0.00018-0.00067l15.52942-8.96591
				c0.30267-0.17865,0.65509-0.28082,1.03186-0.28064c0.37683,0.00018,0.72894,0.10199,1.03131,0.28058l15.52966,8.96634
				L846.10126,466.04202z"/>
			<path class="st20" d="M845.06909,467.82886l-16.56152-9.56152l0.00055,0.00024l-0.00049,0.00049v17.93182
				c-0.00336,0.35144,0.08435,0.70773,0.27295,1.03397c0.18854,0.32623,0.45276,0.58026,0.75861,0.75281l15.52991,8.96591V467.82886
				z"/>
		</g>
		<g>
			<rect x="826.39148" y="492.23325" class="st4" width="39.4199" height="10.88819"/>
			<path class="st5" d="M835.31055,492.22852h3.63281c2.09766,0,3.15332,1.53711,3.15332,3.31348
				c0,1.79297-1.05566,3.33008-3.15332,3.33008h-1.85645v4.0332h-1.77637V492.22852z M838.73535,493.78125h-1.64844v3.52148h1.64844
				c0.94434,0,1.55273-0.7041,1.55273-1.76074C840.28809,494.48633,839.67969,493.78125,838.73535,493.78125z"/>
			<path class="st5" d="M842.76562,499.03125c0-2.17676,1.15234-4.04883,3.3457-4.04883c2.19238,0,3.34473,1.87207,3.34473,4.04883
				c0,2.17773-1.15234,4.06641-3.34473,4.06641C843.91797,503.09766,842.76562,501.20898,842.76562,499.03125z M847.80664,499.03125
				c0-1.39258-0.52734-2.64062-1.69531-2.64062c-1.16895,0-1.69727,1.24805-1.69727,2.64062s0.52832,2.65723,1.69727,2.65723
				C847.2793,501.68848,847.80664,500.42383,847.80664,499.03125z"/>
			<path class="st5" d="M855.375,501.88086c-0.46484,0.76855-1.2168,1.2168-1.98438,1.2168
				c-1.72949,0-2.81836-1.56934-2.81836-4.0498c0-2.44922,1.07324-4.06543,2.81836-4.06543
				c0.75195,0,1.51953,0.39941,1.98438,1.23242v-3.98633h1.60059v10.67676H855.375V501.88086z M855.375,497.44727
				c-0.27246-0.57617-0.89648-1.05664-1.50488-1.05664c-1.10449,0-1.64844,1.15234-1.64844,2.65723
				c0,1.47266,0.54395,2.64062,1.64844,2.64062c0.6084,0,1.23242-0.47949,1.50488-1.05566V497.44727z"/>
		</g>
	</g>
</g>
<g>
	<g>
		<g>
			<path class="st16" d="M893.31134,596.56512c0,2.75-2.25,5-5,5h-84.41986c-2.75,0-5-2.25-5-5v-60.88824c0-2.75,2.25-5,5-5
				h84.41986c2.75,0,5,2.25,5,5V596.56512z"/>
			<path class="st17" d="M893.31134,596.56512c0,2.75-2.25,5-5,5h-84.41986c-2.75,0-5-2.25-5-5v-60.88824c0-2.75,2.25-5,5-5
				h84.41986c2.75,0,5,2.25,5,5V596.56512z"/>
		</g>
		<g>
			<path class="st18" d="M893.31128,596.56506c0,2.75-2.25,5-5,5h-84.4198c-2.75,0-5-2.25-5-5v-60.88818c0-2.75,2.25-5,5-5h84.4198
				c2.75,0,5,2.25,5,5V596.56506z"/>
		</g>
	</g>
	<g>
		<g>
			<path class="st14" d="M828.78058,568.17749c0.18811,0.32623,0.45325,0.58075,0.75916,0.7533l15.52942,8.96594l0.00049-0.00049
				c0.30298,0.17841,0.6554,0.28064,1.03204,0.28064s0.72955-0.10223,1.03204-0.28064l15.52991-8.96594
				c0.30585-0.17255,0.57007-0.42657,0.75861-0.75281c0.1886-0.32623,0.27631-0.6825,0.27295-1.03394v-17.93182l-0.00049-0.00049
				c0.00287-0.35095-0.08484-0.70776-0.27295-1.034c-0.18854-0.32623-0.45374-0.5802-0.75909-0.7533l-15.52991-8.96588v-0.00049
				c-0.30249-0.17841-0.65491-0.2807-1.03156-0.2807c-0.37616,0-0.72858,0.10229-1.03107,0.2807v0.00049l-15.52942,8.96588
				c-0.30591,0.1731-0.57104,0.42706-0.75964,0.7533c-0.18805,0.32623-0.27582,0.68304-0.27289,1.034l-0.00049,0.00049v17.93182
				c-0.00342,0.35144,0.08435,0.7077,0.2724,1.03394"/>
			<path class="st19" d="M847.13367,558.77252l16.56158-9.56152l-0.00061,0.00024l0.00049,0.00049v17.93182
				c0.00342,0.35144-0.08435,0.7077-0.27289,1.03394c-0.1886,0.32623-0.45276,0.58026-0.75867,0.75281l-15.52991,8.96594V558.77252z
				"/>
			<path class="st20" d="M847.13367,558.77252l16.56158-9.56152l-0.00061,0.00024l0.00049,0.00049v17.93182
				c0.00342,0.35144-0.08435,0.7077-0.27289,1.03394c-0.1886,0.32623-0.45276,0.58026-0.75867,0.75281l-15.52991,8.96594V558.77252z
				"/>
			<path class="st20" d="M846.10126,556.98566l-16.56128-9.56195l0.00049,0.00043l0.00018-0.00067l15.52942-8.96594
				c0.30267-0.17865,0.65509-0.28082,1.03186-0.28064c0.37683,0.00018,0.72894,0.10199,1.03131,0.28058l15.52966,8.96637
				L846.10126,556.98566z"/>
			<path class="st20" d="M845.06909,558.77252l-16.56152-9.56152l0.00055,0.00024l-0.00049,0.00049v17.93182
				c-0.00336,0.35144,0.08435,0.7077,0.27295,1.03394c0.18854,0.32623,0.45276,0.58026,0.75861,0.75281l15.52991,8.96594V558.77252z
				"/>
		</g>
		<g>
			<rect x="826.39148" y="583.17688" class="st4" width="39.4199" height="10.88819"/>
			<path class="st5" d="M835.31055,583.17285h3.63281c2.09766,0,3.15332,1.53711,3.15332,3.31348
				c0,1.79297-1.05566,3.33008-3.15332,3.33008h-1.85645v4.0332h-1.77637V583.17285z M838.73535,584.72559h-1.64844v3.52148h1.64844
				c0.94434,0,1.55273-0.7041,1.55273-1.76074C840.28809,585.43066,839.67969,584.72559,838.73535,584.72559z"/>
			<path class="st5" d="M842.76562,589.97559c0-2.17676,1.15234-4.04883,3.3457-4.04883c2.19238,0,3.34473,1.87207,3.34473,4.04883
				c0,2.17773-1.15234,4.06641-3.34473,4.06641C843.91797,594.04199,842.76562,592.15332,842.76562,589.97559z M847.80664,589.97559
				c0-1.39258-0.52734-2.64062-1.69531-2.64062c-1.16895,0-1.69727,1.24805-1.69727,2.64062s0.52832,2.65723,1.69727,2.65723
				C847.2793,592.63281,847.80664,591.36816,847.80664,589.97559z"/>
			<path class="st5" d="M855.375,592.8252c-0.46484,0.76855-1.2168,1.2168-1.98438,1.2168
				c-1.72949,0-2.81836-1.56934-2.81836-4.0498c0-2.44922,1.07324-4.06543,2.81836-4.06543
				c0.75195,0,1.51953,0.39941,1.98438,1.23242v-3.98633h1.60059v10.67676H855.375V592.8252z M855.375,588.3916
				c-0.27246-0.57617-0.89648-1.05664-1.50488-1.05664c-1.10449,0-1.64844,1.15234-1.64844,2.65723
				c0,1.47266,0.54395,2.64062,1.64844,2.64062c0.6084,0,1.23242-0.47949,1.50488-1.05566V588.3916z"/>
		</g>
	</g>
</g>
<line class="st7" x1="652.98743" y1="386.25439" x2="587.87158" y2="386.25439"/>
<path class="st7" d="M667.98737,233.1272c0-8.28429,6.71576-14.99998,15.00006-14.99998"/>
<path class="st7" d="M667.98737,371.25439c0,8.28427-6.7157,15-14.99994,15"/>
<line class="st7" x1="667.98737" y1="290.54886" x2="667.98737" y2="233.1272"/>
<line class="st7" x1="667.98737" y1="371.25439" x2="667.98737" y2="313.83273"/>
<g>
	<g>
		<line class="st6" x1="749.20282" y1="218.1272" x2="744.2453" y2="213.16966"/>
		<line class="st6" x1="749.20282" y1="218.1272" x2="744.2453" y2="223.08473"/>
	</g>
	<line class="st7" x1="682.98743" y1="218.1272" x2="749.20282" y2="218.1272"/>
</g>
<g>
	<path class="st7" d="M667.98737,539.38159c0,8.2843,6.71576,15,15.00006,15"/>
	<path class="st7" d="M667.98737,401.25439c0-8.28427-6.7157-15-14.99994-15"/>
	<line class="st7" x1="667.98737" y1="481.9599" x2="667.98737" y2="539.38159"/>
	<line class="st7" x1="667.98737" y1="401.25439" x2="667.98737" y2="458.67609"/>
	<g>
		<g>
			<line class="st6" x1="749.20282" y1="554.38159" x2="744.2453" y2="559.33911"/>
			<line class="st6" x1="749.20282" y1="554.38159" x2="744.2453" y2="549.42407"/>
		</g>
		<line class="st7" x1="682.98743" y1="554.38159" x2="749.20282" y2="554.38159"/>
	</g>
</g>
<g>
	<g>
		<path class="st21" d="M576.77203,410.15231v9.28397c0,2.37497-1.94318,4.31812-4.31812,4.31812h-9.284
			c-2.37494,0-4.31812-1.94315-4.31812-4.31812v-9.28397c0-2.37497,1.94318-4.31815,4.31812-4.31815h9.284
			C574.82886,405.83417,576.77203,407.77734,576.77203,410.15231z"/>
		<path class="st21" d="M576.77203,381.61243v9.28397c0,2.37497-1.94318,4.31812-4.31812,4.31812h-9.284
			c-2.37494,0-4.31812-1.94315-4.31812-4.31812v-9.28397c0-2.37497,1.94318-4.31815,4.31812-4.31815h9.284
			C574.82886,377.29428,576.77203,379.23746,576.77203,381.61243z"/>
		<path class="st21" d="M576.77203,353.07251v9.284c0,2.37497-1.94318,4.31812-4.31812,4.31812h-9.284
			c-2.37494,0-4.31812-1.94315-4.31812-4.31812v-9.284c0-2.37497,1.94318-4.31812,4.31812-4.31812h9.284
			C574.82886,348.75439,576.77203,350.69754,576.77203,353.07251z"/>
	</g>
	<g>
		<line class="st6" x1="543.09064" y1="386.25439" x2="558.85181" y2="386.25439"/>
		<line class="st6" x1="542.2511" y1="393.66953" x2="560.02246" y2="407.20377"/>
		<line class="st6" x1="542.2511" y1="378.83926" x2="560.0224" y2="365.30508"/>
	</g>
	<g>
		<path class="st14" d="M542.03558,409.47464c0,4.29843-3.51691,7.81537-7.81537,7.81537h-46.44046
			c-4.29846,0-7.81537-3.51694-7.81537-7.81537v-46.44046c0-4.29846,3.51691-7.81537,7.81537-7.81537h46.44046
			c4.29846,0,7.81537,3.51691,7.81537,7.81537V409.47464z"/>
		<path class="st22" d="M542.03558,409.47464c0,4.29843-3.51691,7.81537-7.81537,7.81537h-46.44046
			c-4.29846,0-7.81537-3.51694-7.81537-7.81537v-46.44046c0-4.29846,3.51691-7.81537,7.81537-7.81537h46.44046
			c4.29846,0,7.81537,3.51691,7.81537,7.81537V409.47464z"/>
	</g>
</g>
<g>
	<rect x="771.76007" y="411.25439" class="st4" width="148.68269" height="19.0796"/>
	<path class="st5" d="M777.99121,411.24023h5.04102c2.26074,0,3.44141,1.5,3.44141,3.40039
		c0,1.68066-0.9209,2.74121-2.10059,3.06055c1.32031,0.2002,2.32031,1.64062,2.32031,3.28125
		c0,2.08008-1.16016,3.60059-3.50098,3.60059h-5.20117V411.24023z M782.55273,416.80176c1.12012,0,1.63965-0.74023,1.63965-1.80078
		c0-1.04004-0.51953-1.82031-1.63965-1.82031h-2.34082v3.62109H782.55273z M782.63281,422.62305
		c1.17969,0,1.78027-0.7207,1.78027-1.94043c0-1.06055-0.58008-1.9209-1.78027-1.9209h-2.4209v3.86133H782.63281z"/>
	<path class="st5" d="M793.69238,423.60254c-0.58008,0.80078-1.56055,1.2207-2.54102,1.2207
		c-1.55957,0-2.95996-1.16016-2.95996-3.2207c0-2.08105,1.40039-3.14062,2.95996-3.14062c0.98047,0,1.98047,0.37988,2.54102,1.16016
		v-1.40039c0-1.16016-0.68066-1.84082-1.88086-1.84082c-0.85938,0-1.66016,0.34082-2.40039,1.10059l-0.78027-1.40039
		c0.98047-0.98047,2.30078-1.40039,3.54102-1.40039c2.02051,0,3.50098,0.94043,3.50098,3.30078v6.60156h-1.98047V423.60254z
		 M793.69238,420.92188c-0.37988-0.67969-1.10059-1.08008-1.82031-1.08008c-1.04004,0-1.68066,0.76074-1.68066,1.80078
		s0.64062,1.7998,1.68066,1.7998c0.71973,0,1.44043-0.39941,1.82031-1.05957V420.92188z"/>
	<path class="st5" d="M803.37207,418.00195c0-1.14062-0.51953-1.56055-1.37988-1.56055s-1.60059,0.66016-1.96094,1.33984v6.80176h-2
		v-9.66211h2v1.30078c0.52051-0.78027,1.60059-1.54102,2.80078-1.54102c1.74023,0,2.54102,0.95996,2.54102,2.62109v7.28125h-2.00098
		V418.00195z"/>
	<path class="st5" d="M810.8916,420.54199l-1.16016,1.56055v2.48047h-2.00098v-13.34277h2.00098v8.42188l3.40039-4.74121h2.32031
		l-3.2002,4.34082l3.26074,5.32129h-2.34082L810.8916,420.54199z"/>
	<path class="st5" d="M816.59082,412.08008c0-0.7002,0.58008-1.25977,1.25977-1.25977c0.68066,0,1.24023,0.55957,1.24023,1.25977
		c0,0.68066-0.55957,1.24023-1.24023,1.24023C817.1709,413.32031,816.59082,412.76074,816.59082,412.08008z M816.85059,414.9209h2
		v9.66211h-2V414.9209z"/>
	<path class="st5" d="M826.55176,418.00195c0-1.14062-0.52051-1.56055-1.38086-1.56055s-1.60059,0.66016-1.95996,1.33984v6.80176
		h-2.00098v-9.66211h2.00098v1.30078c0.51953-0.78027,1.60059-1.54102,2.80078-1.54102c1.74023,0,2.54004,0.95996,2.54004,2.62109
		v7.28125h-2V418.00195z"/>
	<path class="st5" d="M831.65039,425.74316c0.66016,0.7207,1.5,1.08008,2.5,1.08008c1.2002,0,2.28125-0.66016,2.28125-2.41992
		v-1.38086c-0.58105,0.98047-1.52051,1.58008-2.48145,1.58008c-2.16016,0-3.52051-1.86035-3.52051-4.96094
		c0-3.06055,1.34082-4.96094,3.52051-4.96094c0.94043,0,1.88086,0.5,2.48145,1.54102v-1.30078h1.97949v9.32227
		c0,3.34082-2.08008,4.26074-4.16016,4.26074c-1.38086,0-2.46094-0.32031-3.4209-1.2207L831.65039,425.74316z M836.43164,417.76172
		c-0.34082-0.7207-1.12109-1.32031-1.88086-1.32031c-1.37988,0-2.06055,1.33984-2.06055,3.2002
		c0,1.84082,0.68066,3.18066,2.06055,3.18066c0.75977,0,1.54004-0.59961,1.88086-1.32031V417.76172z"/>
	<path class="st5" d="M851.4707,421.94238h-4.58105l-0.71973,2.64062h-2.30078l3.98145-13.34277h2.66016l3.98047,13.34277h-2.2998
		L851.4707,421.94238z M847.34961,419.98242h3.68164l-1.84082-6.76172L847.34961,419.98242z"/>
	<path class="st5" d="M855.72949,428.26367V414.9209h2v1.28027c0.56055-0.95996,1.50098-1.52051,2.48047-1.52051
		c2.18066,0,3.52148,1.94043,3.52148,5.06152c0,3.08008-1.34082,5.08105-3.52148,5.08105c-0.95996,0-1.90039-0.5-2.48047-1.54004
		v4.98047H855.72949z M859.61035,416.44141c-0.76074,0-1.54102,0.58008-1.88086,1.32031v3.96094
		c0.33984,0.71973,1.12012,1.33984,1.88086,1.33984c1.37988,0,2.06055-1.45996,2.06055-3.32031
		S860.99023,416.44141,859.61035,416.44141z"/>
	<path class="st5" d="M865.58887,428.26367V414.9209h2.00098v1.28027c0.55957-0.95996,1.5-1.52051,2.48047-1.52051
		c2.18066,0,3.52051,1.94043,3.52051,5.06152c0,3.08008-1.33984,5.08105-3.52051,5.08105c-0.95996,0-1.90039-0.5-2.48047-1.54004
		v4.98047H865.58887z M869.46973,416.44141c-0.75977,0-1.54004,0.58008-1.87988,1.32031v3.96094
		c0.33984,0.71973,1.12012,1.33984,1.87988,1.33984c1.38086,0,2.06055-1.45996,2.06055-3.32031
		S870.85059,416.44141,869.46973,416.44141z"/>
	<path class="st5" d="M878.54883,411.24023h2.40039l2.9209,10.72266l2.90039-10.72266h2.40039l-3.98047,13.34277h-2.66113
		L878.54883,411.24023z"/>
	<path class="st5" d="M897.02832,414.12109l-2.04004,2.14062l-1.2998-1.36035l3.62012-3.66113h1.9209v13.34277h-2.20117V414.12109z"
		/>
	<path class="st5" d="M902.92871,422.10254c0.74023,0,1.33984,0.62012,1.33984,1.33984c0,0.74023-0.59961,1.36035-1.33984,1.36035
		c-0.7207,0-1.34082-0.62012-1.34082-1.36035C901.58789,422.72266,902.20801,422.10254,902.92871,422.10254z"/>
	<path class="st5" d="M908.68848,417.70117c-1.24023-0.45996-2.40039-1.54004-2.40039-3.2207
		c0-2.40039,2.06055-3.44043,4.14062-3.44043c2.06055,0,4.1416,1.04004,4.1416,3.44043c0,1.68066-1.18066,2.76074-2.4209,3.2207
		c1.33984,0.52051,2.60059,1.84082,2.60059,3.52148c0,2.28027-1.82031,3.60059-4.32129,3.60059
		c-2.52051,0-4.32031-1.30078-4.32031-3.60059C906.1084,419.54199,907.34863,418.22168,908.68848,417.70117z M910.42871,418.60156
		c-0.55957,0.08008-2.10059,0.84082-2.10059,2.32031c0,1.24023,0.9209,1.9209,2.10059,1.9209
		c1.14062,0,2.10059-0.68066,2.10059-1.9209C912.5293,419.44238,910.98926,418.68164,910.42871,418.60156z M910.42871,413.00098
		c-1.16016,0-1.91992,0.7002-1.91992,1.83984c0,1.34082,1.40039,1.9209,1.91992,2.04102
		c0.52051-0.12012,1.9209-0.7002,1.9209-2.04102C912.34961,413.70117,911.56934,413.00098,910.42871,413.00098z"/>
</g>
<g>
	<rect x="623.44135" y="295.54886" class="st4" width="89.0921" height="16.69476"/>
	<path class="st5" d="M653.15918,305.53027c0.67969,1.00098,1.58008,1.56055,2.80078,1.56055
		c1.35938,0,2.17969-1.12012,2.17969-2.44043c0-1.56055-0.78027-2.46094-2.08008-2.46094
		c-0.90039,0-1.60059,0.34082-2.28027,1.16113l-1.62012-0.46094v-7.40137h7.48145v1.94043h-5.26172v3.96094
		c0.5-0.63965,1.40039-1.12012,2.44043-1.12012c1.98047,0,3.56152,1.54004,3.56152,4.32129
		c0,2.62012-1.74121,4.48047-4.36133,4.48047c-2.02051,0-3.32031-0.7998-4.24121-2.14062L653.15918,305.53027z"/>
	<path class="st5" d="M666.39941,295.28809c3.24121,0,4.50098,3.18066,4.50098,6.88184c0,3.68066-1.25977,6.90137-4.50098,6.90137
		c-3.2207,0-4.48047-3.2207-4.48047-6.90137C661.91895,298.46875,663.17871,295.28809,666.39941,295.28809z M666.39941,297.24902
		c-1.75977,0-2.21973,2.32031-2.21973,4.9209c0,2.58008,0.45996,4.9209,2.21973,4.9209c1.78125,0,2.24121-2.34082,2.24121-4.9209
		C668.64062,299.56934,668.18066,297.24902,666.39941,297.24902z"/>
	<path class="st5" d="M675.09863,295.28809c1.76074,0,2.9209,1.44043,2.9209,3.32129c0,1.86035-1.16016,3.28027-2.9209,3.28027
		c-1.75977,0-2.91992-1.41992-2.91992-3.28027C672.17871,296.72852,673.33887,295.28809,675.09863,295.28809z M675.09863,296.56836
		c-0.89941,0-1.48047,0.82031-1.48047,2.04102c0,1.17969,0.58105,2.02051,1.48047,2.02051
		c0.90039,0,1.48047-0.84082,1.48047-2.02051C676.5791,297.38867,675.99902,296.56836,675.09863,296.56836z M681.25977,295.48828
		h1.13965l-7.04004,13.34277h-1.12109L681.25977,295.48828z M681.47949,302.4502c1.75977,0,2.9209,1.45996,2.9209,3.34082
		c0,1.86035-1.16113,3.28027-2.9209,3.28027s-2.89941-1.41992-2.89941-3.28027
		C678.58008,303.91016,679.71973,302.4502,681.47949,302.4502z M681.47949,303.73047c-0.89941,0-1.47949,0.83984-1.47949,2.06055
		c0,1.17969,0.58008,2,1.47949,2c0.90039,0,1.5-0.82031,1.5-2C682.97949,304.57031,682.37988,303.73047,681.47949,303.73047z"/>
</g>
<g>
	<rect x="623.44128" y="463.6156" class="st4" width="89.09212" height="13.4048"/>
	<path class="st5" d="M653.24219,473.62305c0.67969,1.00098,1.58008,1.56055,2.80078,1.56055
		c1.35938,0,2.17969-1.12012,2.17969-2.44043c0-1.56055-0.78027-2.46094-2.08008-2.46094
		c-0.90039,0-1.60059,0.34082-2.28027,1.16113l-1.62012-0.46094v-7.40137h7.48145v1.94043h-5.26172v3.96094
		c0.5-0.63965,1.40039-1.12012,2.44043-1.12012c1.98047,0,3.56152,1.54004,3.56152,4.32129
		c0,2.62012-1.74121,4.48047-4.36133,4.48047c-2.02051,0-3.32031-0.7998-4.24121-2.14062L653.24219,473.62305z"/>
	<path class="st5" d="M666.48242,463.38086c3.24121,0,4.50098,3.18066,4.50098,6.88184c0,3.68066-1.25977,6.90137-4.50098,6.90137
		c-3.2207,0-4.48047-3.2207-4.48047-6.90137C662.00195,466.56152,663.26172,463.38086,666.48242,463.38086z M666.48242,465.3418
		c-1.75977,0-2.21973,2.32031-2.21973,4.9209c0,2.58008,0.45996,4.9209,2.21973,4.9209c1.78125,0,2.24121-2.34082,2.24121-4.9209
		C668.72363,467.66211,668.26367,465.3418,666.48242,465.3418z"/>
	<path class="st5" d="M675.18164,463.38086c1.76074,0,2.9209,1.44043,2.9209,3.32129c0,1.86035-1.16016,3.28027-2.9209,3.28027
		c-1.75977,0-2.91992-1.41992-2.91992-3.28027C672.26172,464.82129,673.42188,463.38086,675.18164,463.38086z M675.18164,464.66113
		c-0.89941,0-1.48047,0.82031-1.48047,2.04102c0,1.17969,0.58105,2.02051,1.48047,2.02051
		c0.90039,0,1.48047-0.84082,1.48047-2.02051C676.66211,465.48145,676.08203,464.66113,675.18164,464.66113z M681.34375,463.58105
		h1.13965l-7.04102,13.34277h-1.12109L681.34375,463.58105z M681.56348,470.54297c1.75977,0,2.9209,1.45996,2.9209,3.34082
		c0,1.86035-1.16113,3.28027-2.9209,3.28027c-1.76074,0-2.90039-1.41992-2.90039-3.28027
		C678.66309,472.00293,679.80273,470.54297,681.56348,470.54297z M681.56348,471.82324c-0.90039,0-1.48047,0.83984-1.48047,2.06055
		c0,1.17969,0.58008,2,1.48047,2s1.5-0.82031,1.5-2C683.06348,472.66309,682.46387,471.82324,681.56348,471.82324z"/>
</g>
<g>
	<g>
		<rect x="50" y="40" class="st4" width="295.20337" height="40.77462"/>
		<path class="st5" d="M60.80811,55.34375h-6.104l-0.86816,3.33203h-3.89209L55.48779,40h4.53613l5.54395,18.67578h-3.89209
			L60.80811,55.34375z M55.45996,52.06738h4.5918l-2.2959-8.73535L55.45996,52.06738z"/>
		<path class="st5" d="M70.8877,39.43945h2.4082l-5.37598,19.7959h-2.4082L70.8877,39.43945z"/>
		<path class="st5" d="M74.94775,40h7.72803c3.33203,0,4.92822,2.21191,4.92822,4.75977c0,2.35254-1.28809,3.86426-2.99609,4.28418
			c1.90381,0.30762,3.30371,2.26758,3.30371,4.5918c0,2.82812-1.5957,5.04004-4.98389,5.04004h-7.97998V40z M81.77979,47.58789
			c1.34424,0,1.98828-0.92383,1.98828-2.18359c0-1.26074-0.64404-2.21289-1.98828-2.21289h-3.08008v4.39648H81.77979z
			 M81.91992,55.4834c1.3999,0,2.15576-0.89551,2.15576-2.35156c0-1.28809-0.72803-2.35156-2.15576-2.35156h-3.22021v4.70312
			H81.91992z"/>
		<path class="st5" d="M99.53125,43.30371h-4.17188V40h12.06787v3.30371h-4.14355v15.37207h-3.75244V43.30371z"/>
		<path class="st5" d="M112.80322,44.81543c3.72412,0,5.82422,3.02441,5.82422,7.22461v0.95215h-8.48389
			c0.13965,1.84766,1.23193,3.30371,3.27588,3.30371c1.03613,0,2.18408-0.47656,2.93994-1.31641l1.54004,2.0166
			c-1.2041,1.31543-3.02393,2.01562-4.84424,2.01562c-3.80762,0-6.2998-2.85547-6.2998-7.1123
			C106.75537,47.97949,109.05127,44.81543,112.80322,44.81543z M110.14355,50.69629h5.23584
			c-0.05615-1.40039-0.67188-3.16406-2.63184-3.16406C110.87158,47.53223,110.19922,49.2959,110.14355,50.69629z"/>
		<path class="st5" d="M121.25879,54.72754c0.84033,0.89648,2.35205,1.65234,3.72412,1.65234
			c1.28809,0,1.98828-0.53223,1.98828-1.40039c0-0.92383-1.03613-1.31543-2.32422-1.73535
			c-1.90381-0.61621-4.36816-1.34473-4.36816-4.36816c0-2.18457,1.76416-4.06055,4.92822-4.06055
			c1.93213,0,3.52783,0.7002,4.7041,1.73633l-1.34424,2.26855c-0.67188-0.75684-1.93213-1.40039-3.30371-1.40039
			c-1.06445,0-1.79199,0.50391-1.79199,1.25977c0,0.8125,0.92383,1.2041,2.18359,1.5957
			c1.95996,0.61621,4.53613,1.42871,4.53613,4.53613c0,2.43652-1.98779,4.2002-5.15186,4.2002
			c-2.18408,0-4.06006-0.72754-5.20801-1.93164L121.25879,54.72754z"/>
		<path class="st5" d="M132.99072,55.42773V48.0918h-1.76416v-2.94043h1.76416v-3.69531h3.35986v3.69531h2.24023v2.94043h-2.24023
			v6.55176c0,0.86816,0.33594,1.40039,0.97998,1.40039c0.41992,0,0.83984-0.16797,1.00781-0.39258l0.7002,2.57617
			c-0.50391,0.44824-1.37207,0.78418-2.604,0.78418C134.08252,59.01172,132.99072,57.80762,132.99072,55.42773z"/>
		<path class="st5" d="M140.41016,41.14746c0-1.11914,0.92432-2.04395,2.01611-2.04395c1.12012,0,2.01611,0.9248,2.01611,2.04395
			c0,1.12012-0.896,2.0166-2.01611,2.0166C141.33447,43.16406,140.41016,42.26758,140.41016,41.14746z M140.74658,45.15137h3.35986
			v13.52441h-3.35986V45.15137z"/>
		<path class="st5" d="M154.71826,49.77148c0-1.42773-0.64404-1.9873-1.76416-1.9873s-1.98779,0.86719-2.46387,1.67969v9.21191
			h-3.35986V45.15137h3.35986v1.76465c0.72803-1.06445,2.23975-2.10059,3.97607-2.10059c2.4917,0,3.61182,1.45605,3.61182,3.69629
			v10.16406h-3.35986V49.77148z"/>
		<path class="st5" d="M162.33398,59.85156c0.92432,1.00781,2.1001,1.48438,3.47217,1.48438
			c1.54004,0,3.02393-0.8125,3.02393-3.19238v-1.65137c-0.83984,1.34375-2.1001,2.07129-3.41602,2.07129
			c-3.02393,0-4.98389-2.43555-4.98389-6.85938c0-4.33984,1.95996-6.88867,4.98389-6.88867c1.31592,0,2.604,0.64453,3.41602,2.04395
			v-1.70801h3.35986v12.82422c0,4.92773-3.21973,6.18848-6.21582,6.18848c-1.98779,0-3.58398-0.47656-4.98389-1.73633
			L162.33398,59.85156z M168.83008,49.37988c-0.41992-0.89648-1.3999-1.5957-2.32373-1.5957c-1.70801,0-2.604,1.56738-2.604,3.91992
			c0,2.35156,0.896,3.8916,2.604,3.8916c0.92383,0,1.90381-0.7002,2.32373-1.56836V49.37988z"/>
	</g>
</g>
</svg>
